%TF.GenerationSoftware,KiCad,Pcbnew,6.0.10-86aedd382b~118~ubuntu22.04.1*%
%TF.CreationDate,2023-01-14T07:35:05+01:00*%
%TF.ProjectId,servo_control,73657276-6f5f-4636-9f6e-74726f6c2e6b,rev?*%
%TF.SameCoordinates,Original*%
%TF.FileFunction,Drillmap*%
%TF.FilePolarity,Positive*%
%FSLAX45Y45*%
G04 Gerber Fmt 4.5, Leading zero omitted, Abs format (unit mm)*
G04 Created by KiCad (PCBNEW 6.0.10-86aedd382b~118~ubuntu22.04.1) date 2023-01-14 07:35:05*
%MOMM*%
%LPD*%
G01*
G04 APERTURE LIST*
%ADD10C,0.100000*%
%ADD11C,0.200000*%
%ADD12C,0.020000*%
%ADD13C,0.040000*%
%ADD14C,0.060000*%
%ADD15C,0.085000*%
G04 APERTURE END LIST*
D10*
X10033000Y-4000500D02*
X19494500Y-4000500D01*
X19494500Y-4000500D02*
X19494500Y-10287000D01*
X19494500Y-10287000D02*
X10033000Y-10287000D01*
X10033000Y-10287000D02*
X10033000Y-4000500D01*
D11*
D12*
X10698500Y-6348250D02*
X10718500Y-6368250D01*
X10718500Y-6348250D02*
X10698500Y-6368250D01*
X10698500Y-6531750D02*
X10718500Y-6551750D01*
X10718500Y-6531750D02*
X10698500Y-6551750D01*
X10790250Y-6256500D02*
X10810250Y-6276500D01*
X10810250Y-6256500D02*
X10790250Y-6276500D01*
X10790250Y-6440000D02*
X10810250Y-6460000D01*
X10810250Y-6440000D02*
X10790250Y-6460000D01*
X10790250Y-6623500D02*
X10810250Y-6643500D01*
X10810250Y-6623500D02*
X10790250Y-6643500D01*
X10882000Y-6348250D02*
X10902000Y-6368250D01*
X10902000Y-6348250D02*
X10882000Y-6368250D01*
X10882000Y-6531750D02*
X10902000Y-6551750D01*
X10902000Y-6531750D02*
X10882000Y-6551750D01*
X10973750Y-6256500D02*
X10993750Y-6276500D01*
X10993750Y-6256500D02*
X10973750Y-6276500D01*
X10973750Y-6440000D02*
X10993750Y-6460000D01*
X10993750Y-6440000D02*
X10973750Y-6460000D01*
X10973750Y-6623500D02*
X10993750Y-6643500D01*
X10993750Y-6623500D02*
X10973750Y-6643500D01*
X11065500Y-6348250D02*
X11085500Y-6368250D01*
X11085500Y-6348250D02*
X11065500Y-6368250D01*
X11065500Y-6531750D02*
X11085500Y-6551750D01*
X11085500Y-6531750D02*
X11065500Y-6551750D01*
D13*
X10116500Y-8890000D02*
G75*
G03*
X10116500Y-8890000I-20000J0D01*
G01*
X10116500Y-10160000D02*
G75*
G03*
X10116500Y-10160000I-20000J0D01*
G01*
X10243500Y-5969000D02*
G75*
G03*
X10243500Y-5969000I-20000J0D01*
G01*
X10243500Y-6731000D02*
G75*
G03*
X10243500Y-6731000I-20000J0D01*
G01*
X10307000Y-5143500D02*
G75*
G03*
X10307000Y-5143500I-20000J0D01*
G01*
X10497500Y-7556500D02*
G75*
G03*
X10497500Y-7556500I-20000J0D01*
G01*
X10497500Y-7747000D02*
G75*
G03*
X10497500Y-7747000I-20000J0D01*
G01*
X10688000Y-5842000D02*
G75*
G03*
X10688000Y-5842000I-20000J0D01*
G01*
X10751500Y-6921500D02*
G75*
G03*
X10751500Y-6921500I-20000J0D01*
G01*
X10772049Y-5747063D02*
G75*
G03*
X10772049Y-5747063I-20000J0D01*
G01*
X10888789Y-7419211D02*
G75*
G03*
X10888789Y-7419211I-20000J0D01*
G01*
X10955722Y-5828278D02*
G75*
G03*
X10955722Y-5828278I-20000J0D01*
G01*
X11005500Y-8763000D02*
G75*
G03*
X11005500Y-8763000I-20000J0D01*
G01*
X11132500Y-6921500D02*
G75*
G03*
X11132500Y-6921500I-20000J0D01*
G01*
X11397869Y-4976950D02*
G75*
G03*
X11397869Y-4976950I-20000J0D01*
G01*
X11450000Y-7556500D02*
G75*
G03*
X11450000Y-7556500I-20000J0D01*
G01*
X11473110Y-4911155D02*
G75*
G03*
X11473110Y-4911155I-20000J0D01*
G01*
X11555310Y-4819818D02*
G75*
G03*
X11555310Y-4819818I-20000J0D01*
G01*
X11640500Y-4572000D02*
G75*
G03*
X11640500Y-4572000I-20000J0D01*
G01*
X11640500Y-8572500D02*
G75*
G03*
X11640500Y-8572500I-20000J0D01*
G01*
X11704000Y-9080500D02*
G75*
G03*
X11704000Y-9080500I-20000J0D01*
G01*
X11767500Y-7620000D02*
G75*
G03*
X11767500Y-7620000I-20000J0D01*
G01*
X11767500Y-9525000D02*
G75*
G03*
X11767500Y-9525000I-20000J0D01*
G01*
X12212000Y-5334000D02*
G75*
G03*
X12212000Y-5334000I-20000J0D01*
G01*
X12275500Y-9080500D02*
G75*
G03*
X12275500Y-9080500I-20000J0D01*
G01*
X12402500Y-4127500D02*
G75*
G03*
X12402500Y-4127500I-20000J0D01*
G01*
X13164500Y-4826000D02*
G75*
G03*
X13164500Y-4826000I-20000J0D01*
G01*
X13164500Y-6794500D02*
G75*
G03*
X13164500Y-6794500I-20000J0D01*
G01*
X13164500Y-9588500D02*
G75*
G03*
X13164500Y-9588500I-20000J0D01*
G01*
X13287350Y-5080000D02*
G75*
G03*
X13287350Y-5080000I-20000J0D01*
G01*
X13355000Y-4953000D02*
G75*
G03*
X13355000Y-4953000I-20000J0D01*
G01*
X13355000Y-6794500D02*
G75*
G03*
X13355000Y-6794500I-20000J0D01*
G01*
X13355000Y-7302500D02*
G75*
G03*
X13355000Y-7302500I-20000J0D01*
G01*
X13418500Y-7465950D02*
G75*
G03*
X13418500Y-7465950I-20000J0D01*
G01*
X13482000Y-5270500D02*
G75*
G03*
X13482000Y-5270500I-20000J0D01*
G01*
X13482000Y-6921500D02*
G75*
G03*
X13482000Y-6921500I-20000J0D01*
G01*
X13482000Y-7048500D02*
G75*
G03*
X13482000Y-7048500I-20000J0D01*
G01*
X13482000Y-7175500D02*
G75*
G03*
X13482000Y-7175500I-20000J0D01*
G01*
X13482000Y-7366000D02*
G75*
G03*
X13482000Y-7366000I-20000J0D01*
G01*
X13482000Y-7683500D02*
G75*
G03*
X13482000Y-7683500I-20000J0D01*
G01*
X13601387Y-8849994D02*
G75*
G03*
X13601387Y-8849994I-20000J0D01*
G01*
X13672500Y-4889500D02*
G75*
G03*
X13672500Y-4889500I-20000J0D01*
G01*
X13672500Y-6350000D02*
G75*
G03*
X13672500Y-6350000I-20000J0D01*
G01*
X13714300Y-8783450D02*
G75*
G03*
X13714300Y-8783450I-20000J0D01*
G01*
X13736000Y-5334000D02*
G75*
G03*
X13736000Y-5334000I-20000J0D01*
G01*
X13736000Y-5588000D02*
G75*
G03*
X13736000Y-5588000I-20000J0D01*
G01*
X13926500Y-4889500D02*
G75*
G03*
X13926500Y-4889500I-20000J0D01*
G01*
X13990000Y-5524500D02*
G75*
G03*
X13990000Y-5524500I-20000J0D01*
G01*
X14180500Y-7810500D02*
G75*
G03*
X14180500Y-7810500I-20000J0D01*
G01*
X14180500Y-8382000D02*
G75*
G03*
X14180500Y-8382000I-20000J0D01*
G01*
X14182623Y-6098123D02*
G75*
G03*
X14182623Y-6098123I-20000J0D01*
G01*
X14307500Y-5524500D02*
G75*
G03*
X14307500Y-5524500I-20000J0D01*
G01*
X14390480Y-6432980D02*
G75*
G03*
X14390480Y-6432980I-20000J0D01*
G01*
X14607050Y-7692450D02*
G75*
G03*
X14607050Y-7692450I-20000J0D01*
G01*
X14727036Y-6931960D02*
G75*
G03*
X14727036Y-6931960I-20000J0D01*
G01*
X14752000Y-7239000D02*
G75*
G03*
X14752000Y-7239000I-20000J0D01*
G01*
X14752000Y-7747000D02*
G75*
G03*
X14752000Y-7747000I-20000J0D01*
G01*
X14826030Y-6945753D02*
G75*
G03*
X14826030Y-6945753I-20000J0D01*
G01*
X14879000Y-7747000D02*
G75*
G03*
X14879000Y-7747000I-20000J0D01*
G01*
X14879000Y-8128000D02*
G75*
G03*
X14879000Y-8128000I-20000J0D01*
G01*
X15006000Y-8128000D02*
G75*
G03*
X15006000Y-8128000I-20000J0D01*
G01*
X15078450Y-7810500D02*
G75*
G03*
X15078450Y-7810500I-20000J0D01*
G01*
X15260000Y-8055550D02*
G75*
G03*
X15260000Y-8055550I-20000J0D01*
G01*
X15641000Y-7874000D02*
G75*
G03*
X15641000Y-7874000I-20000J0D01*
G01*
X15641000Y-9207500D02*
G75*
G03*
X15641000Y-9207500I-20000J0D01*
G01*
X15958500Y-5969000D02*
G75*
G03*
X15958500Y-5969000I-20000J0D01*
G01*
X16022000Y-8128000D02*
G75*
G03*
X16022000Y-8128000I-20000J0D01*
G01*
X16149000Y-8445500D02*
G75*
G03*
X16149000Y-8445500I-20000J0D01*
G01*
X16784000Y-5905500D02*
G75*
G03*
X16784000Y-5905500I-20000J0D01*
G01*
X17038000Y-7175500D02*
G75*
G03*
X17038000Y-7175500I-20000J0D01*
G01*
X17228500Y-4127500D02*
G75*
G03*
X17228500Y-4127500I-20000J0D01*
G01*
X17419000Y-8699500D02*
G75*
G03*
X17419000Y-8699500I-20000J0D01*
G01*
X17546000Y-6731000D02*
G75*
G03*
X17546000Y-6731000I-20000J0D01*
G01*
X18117500Y-7493000D02*
G75*
G03*
X18117500Y-7493000I-20000J0D01*
G01*
D14*
X10174237Y-7939615D02*
X10174237Y-7999615D01*
X10144237Y-7969615D02*
X10204237Y-7969615D01*
D11*
X10139237Y-7999615D02*
X10209237Y-7999615D01*
X10139237Y-7939615D02*
X10209237Y-7939615D01*
X10209237Y-7999615D02*
G75*
G03*
X10209237Y-7939615I0J30000D01*
G01*
X10139237Y-7939615D02*
G75*
G03*
X10139237Y-7999615I0J-30000D01*
G01*
D14*
X10174237Y-8639615D02*
X10174237Y-8699615D01*
X10144237Y-8669615D02*
X10204237Y-8669615D01*
D11*
X10209237Y-8639615D02*
X10139237Y-8639615D01*
X10209237Y-8699615D02*
X10139237Y-8699615D01*
X10139237Y-8639615D02*
G75*
G03*
X10139237Y-8699615I0J-30000D01*
G01*
X10209237Y-8699615D02*
G75*
G03*
X10209237Y-8639615I0J30000D01*
G01*
D15*
X10474289Y-8099667D02*
X10474289Y-8039563D01*
X10414185Y-8039563D01*
X10414185Y-8099667D01*
X10474289Y-8099667D01*
X10474289Y-8599668D02*
X10474289Y-8539563D01*
X10414185Y-8539563D01*
X10414185Y-8599668D01*
X10474289Y-8599668D01*
D10*
X10414000Y-4368000D02*
X10464000Y-4318000D01*
X10414000Y-4268000D01*
X10364000Y-4318000D01*
X10414000Y-4368000D01*
X10414000Y-4622000D02*
X10464000Y-4572000D01*
X10414000Y-4522000D01*
X10364000Y-4572000D01*
X10414000Y-4622000D01*
X10414000Y-4876000D02*
X10464000Y-4826000D01*
X10414000Y-4776000D01*
X10364000Y-4826000D01*
X10414000Y-4876000D01*
X10414000Y-9572000D02*
X10464000Y-9522000D01*
X10414000Y-9472000D01*
X10364000Y-9522000D01*
X10414000Y-9572000D01*
X10414000Y-9826000D02*
X10464000Y-9776000D01*
X10414000Y-9726000D01*
X10364000Y-9776000D01*
X10414000Y-9826000D01*
X10414000Y-10080000D02*
X10464000Y-10030000D01*
X10414000Y-9980000D01*
X10364000Y-10030000D01*
X10414000Y-10080000D01*
X10668000Y-4368000D02*
X10718000Y-4318000D01*
X10668000Y-4268000D01*
X10618000Y-4318000D01*
X10668000Y-4368000D01*
X10668000Y-4622000D02*
X10718000Y-4572000D01*
X10668000Y-4522000D01*
X10618000Y-4572000D01*
X10668000Y-4622000D01*
X10668000Y-4876000D02*
X10718000Y-4826000D01*
X10668000Y-4776000D01*
X10618000Y-4826000D01*
X10668000Y-4876000D01*
X10668000Y-9572000D02*
X10718000Y-9522000D01*
X10668000Y-9472000D01*
X10618000Y-9522000D01*
X10668000Y-9572000D01*
X10668000Y-9826000D02*
X10718000Y-9776000D01*
X10668000Y-9726000D01*
X10618000Y-9776000D01*
X10668000Y-9826000D01*
X10668000Y-10080000D02*
X10718000Y-10030000D01*
X10668000Y-9980000D01*
X10618000Y-10030000D01*
X10668000Y-10080000D01*
X10922000Y-4368000D02*
X10972000Y-4318000D01*
X10922000Y-4268000D01*
X10872000Y-4318000D01*
X10922000Y-4368000D01*
X10922000Y-4622000D02*
X10972000Y-4572000D01*
X10922000Y-4522000D01*
X10872000Y-4572000D01*
X10922000Y-4622000D01*
X10922000Y-4876000D02*
X10972000Y-4826000D01*
X10922000Y-4776000D01*
X10872000Y-4826000D01*
X10922000Y-4876000D01*
X10922000Y-9572000D02*
X10972000Y-9522000D01*
X10922000Y-9472000D01*
X10872000Y-9522000D01*
X10922000Y-9572000D01*
X10922000Y-9826000D02*
X10972000Y-9776000D01*
X10922000Y-9726000D01*
X10872000Y-9776000D01*
X10922000Y-9826000D01*
X10922000Y-10080000D02*
X10972000Y-10030000D01*
X10922000Y-9980000D01*
X10872000Y-10030000D01*
X10922000Y-10080000D01*
X12446000Y-6146000D02*
X12496000Y-6096000D01*
X12446000Y-6046000D01*
X12396000Y-6096000D01*
X12446000Y-6146000D01*
X12446000Y-6400000D02*
X12496000Y-6350000D01*
X12446000Y-6300000D01*
X12396000Y-6350000D01*
X12446000Y-6400000D01*
X12446000Y-6654000D02*
X12496000Y-6604000D01*
X12446000Y-6554000D01*
X12396000Y-6604000D01*
X12446000Y-6654000D01*
X12446000Y-6908000D02*
X12496000Y-6858000D01*
X12446000Y-6808000D01*
X12396000Y-6858000D01*
X12446000Y-6908000D01*
X12446000Y-7162000D02*
X12496000Y-7112000D01*
X12446000Y-7062000D01*
X12396000Y-7112000D01*
X12446000Y-7162000D01*
X12446000Y-7416000D02*
X12496000Y-7366000D01*
X12446000Y-7316000D01*
X12396000Y-7366000D01*
X12446000Y-7416000D01*
X14478000Y-4368000D02*
X14528000Y-4318000D01*
X14478000Y-4268000D01*
X14428000Y-4318000D01*
X14478000Y-4368000D01*
X14478000Y-4622000D02*
X14528000Y-4572000D01*
X14478000Y-4522000D01*
X14428000Y-4572000D01*
X14478000Y-4622000D01*
X14478000Y-4876000D02*
X14528000Y-4826000D01*
X14478000Y-4776000D01*
X14428000Y-4826000D01*
X14478000Y-4876000D01*
X14490000Y-9575000D02*
X14540000Y-9525000D01*
X14490000Y-9475000D01*
X14440000Y-9525000D01*
X14490000Y-9575000D01*
X14490000Y-9829000D02*
X14540000Y-9779000D01*
X14490000Y-9729000D01*
X14440000Y-9779000D01*
X14490000Y-9829000D01*
X14490000Y-10083000D02*
X14540000Y-10033000D01*
X14490000Y-9983000D01*
X14440000Y-10033000D01*
X14490000Y-10083000D01*
X14732000Y-4368000D02*
X14782000Y-4318000D01*
X14732000Y-4268000D01*
X14682000Y-4318000D01*
X14732000Y-4368000D01*
X14732000Y-4622000D02*
X14782000Y-4572000D01*
X14732000Y-4522000D01*
X14682000Y-4572000D01*
X14732000Y-4622000D01*
X14732000Y-4876000D02*
X14782000Y-4826000D01*
X14732000Y-4776000D01*
X14682000Y-4826000D01*
X14732000Y-4876000D01*
X14732000Y-9575000D02*
X14782000Y-9525000D01*
X14732000Y-9475000D01*
X14682000Y-9525000D01*
X14732000Y-9575000D01*
X14732000Y-9829000D02*
X14782000Y-9779000D01*
X14732000Y-9729000D01*
X14682000Y-9779000D01*
X14732000Y-9829000D01*
X14732000Y-10083000D02*
X14782000Y-10033000D01*
X14732000Y-9983000D01*
X14682000Y-10033000D01*
X14732000Y-10083000D01*
X14986000Y-4368000D02*
X15036000Y-4318000D01*
X14986000Y-4268000D01*
X14936000Y-4318000D01*
X14986000Y-4368000D01*
X14986000Y-4622000D02*
X15036000Y-4572000D01*
X14986000Y-4522000D01*
X14936000Y-4572000D01*
X14986000Y-4622000D01*
X14986000Y-4876000D02*
X15036000Y-4826000D01*
X14986000Y-4776000D01*
X14936000Y-4826000D01*
X14986000Y-4876000D01*
X14986000Y-9575000D02*
X15036000Y-9525000D01*
X14986000Y-9475000D01*
X14936000Y-9525000D01*
X14986000Y-9575000D01*
X14986000Y-9829000D02*
X15036000Y-9779000D01*
X14986000Y-9729000D01*
X14936000Y-9779000D01*
X14986000Y-9829000D01*
X14986000Y-10083000D02*
X15036000Y-10033000D01*
X14986000Y-9983000D01*
X14936000Y-10033000D01*
X14986000Y-10083000D01*
X18237246Y-9524731D02*
X18287246Y-9474731D01*
X18237246Y-9424731D01*
X18187246Y-9474731D01*
X18237246Y-9524731D01*
X18237246Y-9778731D02*
X18287246Y-9728731D01*
X18237246Y-9678731D01*
X18187246Y-9728731D01*
X18237246Y-9778731D01*
X18237246Y-10032731D02*
X18287246Y-9982731D01*
X18237246Y-9932731D01*
X18187246Y-9982731D01*
X18237246Y-10032731D01*
X18288000Y-4368000D02*
X18338000Y-4318000D01*
X18288000Y-4268000D01*
X18238000Y-4318000D01*
X18288000Y-4368000D01*
X18288000Y-4622000D02*
X18338000Y-4572000D01*
X18288000Y-4522000D01*
X18238000Y-4572000D01*
X18288000Y-4622000D01*
X18288000Y-4876000D02*
X18338000Y-4826000D01*
X18288000Y-4776000D01*
X18238000Y-4826000D01*
X18288000Y-4876000D01*
X18491246Y-9524731D02*
X18541246Y-9474731D01*
X18491246Y-9424731D01*
X18441246Y-9474731D01*
X18491246Y-9524731D01*
X18491246Y-9778731D02*
X18541246Y-9728731D01*
X18491246Y-9678731D01*
X18441246Y-9728731D01*
X18491246Y-9778731D01*
X18491246Y-10032731D02*
X18541246Y-9982731D01*
X18491246Y-9932731D01*
X18441246Y-9982731D01*
X18491246Y-10032731D01*
X18542000Y-4368000D02*
X18592000Y-4318000D01*
X18542000Y-4268000D01*
X18492000Y-4318000D01*
X18542000Y-4368000D01*
X18542000Y-4622000D02*
X18592000Y-4572000D01*
X18542000Y-4522000D01*
X18492000Y-4572000D01*
X18542000Y-4622000D01*
X18542000Y-4876000D02*
X18592000Y-4826000D01*
X18542000Y-4776000D01*
X18492000Y-4826000D01*
X18542000Y-4876000D01*
X18745246Y-9524731D02*
X18795246Y-9474731D01*
X18745246Y-9424731D01*
X18695246Y-9474731D01*
X18745246Y-9524731D01*
X18745246Y-9778731D02*
X18795246Y-9728731D01*
X18745246Y-9678731D01*
X18695246Y-9728731D01*
X18745246Y-9778731D01*
X18745246Y-10032731D02*
X18795246Y-9982731D01*
X18745246Y-9932731D01*
X18695246Y-9982731D01*
X18745246Y-10032731D01*
X18796000Y-4368000D02*
X18846000Y-4318000D01*
X18796000Y-4268000D01*
X18746000Y-4318000D01*
X18796000Y-4368000D01*
X18796000Y-4622000D02*
X18846000Y-4572000D01*
X18796000Y-4522000D01*
X18746000Y-4572000D01*
X18796000Y-4622000D01*
X18796000Y-4876000D02*
X18846000Y-4826000D01*
X18796000Y-4776000D01*
X18746000Y-4826000D01*
X18796000Y-4876000D01*
D11*
X10285619Y-10602476D02*
X10285619Y-10402476D01*
X10333238Y-10402476D01*
X10361810Y-10412000D01*
X10380857Y-10431048D01*
X10390381Y-10450095D01*
X10399905Y-10488190D01*
X10399905Y-10516762D01*
X10390381Y-10554857D01*
X10380857Y-10573905D01*
X10361810Y-10592952D01*
X10333238Y-10602476D01*
X10285619Y-10602476D01*
X10485619Y-10602476D02*
X10485619Y-10469143D01*
X10485619Y-10507238D02*
X10495143Y-10488190D01*
X10504667Y-10478667D01*
X10523714Y-10469143D01*
X10542762Y-10469143D01*
X10609429Y-10602476D02*
X10609429Y-10469143D01*
X10609429Y-10402476D02*
X10599905Y-10412000D01*
X10609429Y-10421524D01*
X10618952Y-10412000D01*
X10609429Y-10402476D01*
X10609429Y-10421524D01*
X10733238Y-10602476D02*
X10714190Y-10592952D01*
X10704667Y-10573905D01*
X10704667Y-10402476D01*
X10838000Y-10602476D02*
X10818952Y-10592952D01*
X10809429Y-10573905D01*
X10809429Y-10402476D01*
X11066571Y-10602476D02*
X11066571Y-10402476D01*
X11133238Y-10545333D01*
X11199905Y-10402476D01*
X11199905Y-10602476D01*
X11380857Y-10602476D02*
X11380857Y-10497714D01*
X11371333Y-10478667D01*
X11352286Y-10469143D01*
X11314190Y-10469143D01*
X11295143Y-10478667D01*
X11380857Y-10592952D02*
X11361809Y-10602476D01*
X11314190Y-10602476D01*
X11295143Y-10592952D01*
X11285619Y-10573905D01*
X11285619Y-10554857D01*
X11295143Y-10535810D01*
X11314190Y-10526286D01*
X11361809Y-10526286D01*
X11380857Y-10516762D01*
X11476095Y-10469143D02*
X11476095Y-10669143D01*
X11476095Y-10478667D02*
X11495143Y-10469143D01*
X11533238Y-10469143D01*
X11552286Y-10478667D01*
X11561809Y-10488190D01*
X11571333Y-10507238D01*
X11571333Y-10564381D01*
X11561809Y-10583429D01*
X11552286Y-10592952D01*
X11533238Y-10602476D01*
X11495143Y-10602476D01*
X11476095Y-10592952D01*
X11657048Y-10583429D02*
X11666571Y-10592952D01*
X11657048Y-10602476D01*
X11647524Y-10592952D01*
X11657048Y-10583429D01*
X11657048Y-10602476D01*
X11657048Y-10478667D02*
X11666571Y-10488190D01*
X11657048Y-10497714D01*
X11647524Y-10488190D01*
X11657048Y-10478667D01*
X11657048Y-10497714D01*
D12*
X10008000Y-10922000D02*
X10028000Y-10942000D01*
X10028000Y-10922000D02*
X10008000Y-10942000D01*
D11*
X10323714Y-10822476D02*
X10342762Y-10822476D01*
X10361810Y-10832000D01*
X10371333Y-10841524D01*
X10380857Y-10860571D01*
X10390381Y-10898667D01*
X10390381Y-10946286D01*
X10380857Y-10984381D01*
X10371333Y-11003429D01*
X10361810Y-11012952D01*
X10342762Y-11022476D01*
X10323714Y-11022476D01*
X10304667Y-11012952D01*
X10295143Y-11003429D01*
X10285619Y-10984381D01*
X10276095Y-10946286D01*
X10276095Y-10898667D01*
X10285619Y-10860571D01*
X10295143Y-10841524D01*
X10304667Y-10832000D01*
X10323714Y-10822476D01*
X10476095Y-11003429D02*
X10485619Y-11012952D01*
X10476095Y-11022476D01*
X10466571Y-11012952D01*
X10476095Y-11003429D01*
X10476095Y-11022476D01*
X10561810Y-10841524D02*
X10571333Y-10832000D01*
X10590381Y-10822476D01*
X10638000Y-10822476D01*
X10657048Y-10832000D01*
X10666571Y-10841524D01*
X10676095Y-10860571D01*
X10676095Y-10879619D01*
X10666571Y-10908190D01*
X10552286Y-11022476D01*
X10676095Y-11022476D01*
X10799905Y-10822476D02*
X10818952Y-10822476D01*
X10838000Y-10832000D01*
X10847524Y-10841524D01*
X10857048Y-10860571D01*
X10866571Y-10898667D01*
X10866571Y-10946286D01*
X10857048Y-10984381D01*
X10847524Y-11003429D01*
X10838000Y-11012952D01*
X10818952Y-11022476D01*
X10799905Y-11022476D01*
X10780857Y-11012952D01*
X10771333Y-11003429D01*
X10761810Y-10984381D01*
X10752286Y-10946286D01*
X10752286Y-10898667D01*
X10761810Y-10860571D01*
X10771333Y-10841524D01*
X10780857Y-10832000D01*
X10799905Y-10822476D01*
X10990381Y-10822476D02*
X11009429Y-10822476D01*
X11028476Y-10832000D01*
X11038000Y-10841524D01*
X11047524Y-10860571D01*
X11057048Y-10898667D01*
X11057048Y-10946286D01*
X11047524Y-10984381D01*
X11038000Y-11003429D01*
X11028476Y-11012952D01*
X11009429Y-11022476D01*
X10990381Y-11022476D01*
X10971333Y-11012952D01*
X10961810Y-11003429D01*
X10952286Y-10984381D01*
X10942762Y-10946286D01*
X10942762Y-10898667D01*
X10952286Y-10860571D01*
X10961810Y-10841524D01*
X10971333Y-10832000D01*
X10990381Y-10822476D01*
X11142762Y-11022476D02*
X11142762Y-10889143D01*
X11142762Y-10908190D02*
X11152286Y-10898667D01*
X11171333Y-10889143D01*
X11199905Y-10889143D01*
X11218952Y-10898667D01*
X11228476Y-10917714D01*
X11228476Y-11022476D01*
X11228476Y-10917714D02*
X11238000Y-10898667D01*
X11257048Y-10889143D01*
X11285619Y-10889143D01*
X11304667Y-10898667D01*
X11314190Y-10917714D01*
X11314190Y-11022476D01*
X11409428Y-11022476D02*
X11409428Y-10889143D01*
X11409428Y-10908190D02*
X11418952Y-10898667D01*
X11438000Y-10889143D01*
X11466571Y-10889143D01*
X11485619Y-10898667D01*
X11495143Y-10917714D01*
X11495143Y-11022476D01*
X11495143Y-10917714D02*
X11504667Y-10898667D01*
X11523714Y-10889143D01*
X11552286Y-10889143D01*
X11571333Y-10898667D01*
X11580857Y-10917714D01*
X11580857Y-11022476D01*
X11971333Y-10812952D02*
X11799905Y-11070095D01*
X12228476Y-10822476D02*
X12247524Y-10822476D01*
X12266571Y-10832000D01*
X12276095Y-10841524D01*
X12285619Y-10860571D01*
X12295143Y-10898667D01*
X12295143Y-10946286D01*
X12285619Y-10984381D01*
X12276095Y-11003429D01*
X12266571Y-11012952D01*
X12247524Y-11022476D01*
X12228476Y-11022476D01*
X12209428Y-11012952D01*
X12199905Y-11003429D01*
X12190381Y-10984381D01*
X12180857Y-10946286D01*
X12180857Y-10898667D01*
X12190381Y-10860571D01*
X12199905Y-10841524D01*
X12209428Y-10832000D01*
X12228476Y-10822476D01*
X12380857Y-11003429D02*
X12390381Y-11012952D01*
X12380857Y-11022476D01*
X12371333Y-11012952D01*
X12380857Y-11003429D01*
X12380857Y-11022476D01*
X12514190Y-10822476D02*
X12533238Y-10822476D01*
X12552286Y-10832000D01*
X12561809Y-10841524D01*
X12571333Y-10860571D01*
X12580857Y-10898667D01*
X12580857Y-10946286D01*
X12571333Y-10984381D01*
X12561809Y-11003429D01*
X12552286Y-11012952D01*
X12533238Y-11022476D01*
X12514190Y-11022476D01*
X12495143Y-11012952D01*
X12485619Y-11003429D01*
X12476095Y-10984381D01*
X12466571Y-10946286D01*
X12466571Y-10898667D01*
X12476095Y-10860571D01*
X12485619Y-10841524D01*
X12495143Y-10832000D01*
X12514190Y-10822476D01*
X12704667Y-10822476D02*
X12723714Y-10822476D01*
X12742762Y-10832000D01*
X12752286Y-10841524D01*
X12761809Y-10860571D01*
X12771333Y-10898667D01*
X12771333Y-10946286D01*
X12761809Y-10984381D01*
X12752286Y-11003429D01*
X12742762Y-11012952D01*
X12723714Y-11022476D01*
X12704667Y-11022476D01*
X12685619Y-11012952D01*
X12676095Y-11003429D01*
X12666571Y-10984381D01*
X12657048Y-10946286D01*
X12657048Y-10898667D01*
X12666571Y-10860571D01*
X12676095Y-10841524D01*
X12685619Y-10832000D01*
X12704667Y-10822476D01*
X12838000Y-10822476D02*
X12971333Y-10822476D01*
X12885619Y-11022476D01*
X13057048Y-11022476D02*
X13095143Y-11022476D01*
X13114190Y-11012952D01*
X13123714Y-11003429D01*
X13142762Y-10974857D01*
X13152286Y-10936762D01*
X13152286Y-10860571D01*
X13142762Y-10841524D01*
X13133238Y-10832000D01*
X13114190Y-10822476D01*
X13076095Y-10822476D01*
X13057048Y-10832000D01*
X13047524Y-10841524D01*
X13038000Y-10860571D01*
X13038000Y-10908190D01*
X13047524Y-10927238D01*
X13057048Y-10936762D01*
X13076095Y-10946286D01*
X13114190Y-10946286D01*
X13133238Y-10936762D01*
X13142762Y-10927238D01*
X13152286Y-10908190D01*
X13228476Y-10822476D02*
X13228476Y-10860571D01*
X13304667Y-10822476D02*
X13304667Y-10860571D01*
X13599905Y-11098667D02*
X13590381Y-11089143D01*
X13571333Y-11060571D01*
X13561809Y-11041524D01*
X13552286Y-11012952D01*
X13542762Y-10965333D01*
X13542762Y-10927238D01*
X13552286Y-10879619D01*
X13561809Y-10851048D01*
X13571333Y-10832000D01*
X13590381Y-10803429D01*
X13599905Y-10793905D01*
X13780857Y-11022476D02*
X13666571Y-11022476D01*
X13723714Y-11022476D02*
X13723714Y-10822476D01*
X13704667Y-10851048D01*
X13685619Y-10870095D01*
X13666571Y-10879619D01*
X13857048Y-10841524D02*
X13866571Y-10832000D01*
X13885619Y-10822476D01*
X13933238Y-10822476D01*
X13952286Y-10832000D01*
X13961809Y-10841524D01*
X13971333Y-10860571D01*
X13971333Y-10879619D01*
X13961809Y-10908190D01*
X13847524Y-11022476D01*
X13971333Y-11022476D01*
X14209428Y-11022476D02*
X14209428Y-10822476D01*
X14295143Y-11022476D02*
X14295143Y-10917714D01*
X14285619Y-10898667D01*
X14266571Y-10889143D01*
X14238000Y-10889143D01*
X14218952Y-10898667D01*
X14209428Y-10908190D01*
X14418952Y-11022476D02*
X14399905Y-11012952D01*
X14390381Y-11003429D01*
X14380857Y-10984381D01*
X14380857Y-10927238D01*
X14390381Y-10908190D01*
X14399905Y-10898667D01*
X14418952Y-10889143D01*
X14447524Y-10889143D01*
X14466571Y-10898667D01*
X14476095Y-10908190D01*
X14485619Y-10927238D01*
X14485619Y-10984381D01*
X14476095Y-11003429D01*
X14466571Y-11012952D01*
X14447524Y-11022476D01*
X14418952Y-11022476D01*
X14599905Y-11022476D02*
X14580857Y-11012952D01*
X14571333Y-10993905D01*
X14571333Y-10822476D01*
X14752286Y-11012952D02*
X14733238Y-11022476D01*
X14695143Y-11022476D01*
X14676095Y-11012952D01*
X14666571Y-10993905D01*
X14666571Y-10917714D01*
X14676095Y-10898667D01*
X14695143Y-10889143D01*
X14733238Y-10889143D01*
X14752286Y-10898667D01*
X14761809Y-10917714D01*
X14761809Y-10936762D01*
X14666571Y-10955810D01*
X14838000Y-11012952D02*
X14857048Y-11022476D01*
X14895143Y-11022476D01*
X14914190Y-11012952D01*
X14923714Y-10993905D01*
X14923714Y-10984381D01*
X14914190Y-10965333D01*
X14895143Y-10955810D01*
X14866571Y-10955810D01*
X14847524Y-10946286D01*
X14838000Y-10927238D01*
X14838000Y-10917714D01*
X14847524Y-10898667D01*
X14866571Y-10889143D01*
X14895143Y-10889143D01*
X14914190Y-10898667D01*
X14990381Y-11098667D02*
X14999905Y-11089143D01*
X15018952Y-11060571D01*
X15028476Y-11041524D01*
X15038000Y-11012952D01*
X15047524Y-10965333D01*
X15047524Y-10927238D01*
X15038000Y-10879619D01*
X15028476Y-10851048D01*
X15018952Y-10832000D01*
X14999905Y-10803429D01*
X14990381Y-10793905D01*
D13*
X10028000Y-11196000D02*
G75*
G03*
X10028000Y-11196000I-20000J0D01*
G01*
D11*
X10323714Y-11086476D02*
X10342762Y-11086476D01*
X10361810Y-11096000D01*
X10371333Y-11105524D01*
X10380857Y-11124571D01*
X10390381Y-11162667D01*
X10390381Y-11210286D01*
X10380857Y-11248381D01*
X10371333Y-11267428D01*
X10361810Y-11276952D01*
X10342762Y-11286476D01*
X10323714Y-11286476D01*
X10304667Y-11276952D01*
X10295143Y-11267428D01*
X10285619Y-11248381D01*
X10276095Y-11210286D01*
X10276095Y-11162667D01*
X10285619Y-11124571D01*
X10295143Y-11105524D01*
X10304667Y-11096000D01*
X10323714Y-11086476D01*
X10476095Y-11267428D02*
X10485619Y-11276952D01*
X10476095Y-11286476D01*
X10466571Y-11276952D01*
X10476095Y-11267428D01*
X10476095Y-11286476D01*
X10657048Y-11153143D02*
X10657048Y-11286476D01*
X10609429Y-11076952D02*
X10561810Y-11219809D01*
X10685619Y-11219809D01*
X10799905Y-11086476D02*
X10818952Y-11086476D01*
X10838000Y-11096000D01*
X10847524Y-11105524D01*
X10857048Y-11124571D01*
X10866571Y-11162667D01*
X10866571Y-11210286D01*
X10857048Y-11248381D01*
X10847524Y-11267428D01*
X10838000Y-11276952D01*
X10818952Y-11286476D01*
X10799905Y-11286476D01*
X10780857Y-11276952D01*
X10771333Y-11267428D01*
X10761810Y-11248381D01*
X10752286Y-11210286D01*
X10752286Y-11162667D01*
X10761810Y-11124571D01*
X10771333Y-11105524D01*
X10780857Y-11096000D01*
X10799905Y-11086476D01*
X10990381Y-11086476D02*
X11009429Y-11086476D01*
X11028476Y-11096000D01*
X11038000Y-11105524D01*
X11047524Y-11124571D01*
X11057048Y-11162667D01*
X11057048Y-11210286D01*
X11047524Y-11248381D01*
X11038000Y-11267428D01*
X11028476Y-11276952D01*
X11009429Y-11286476D01*
X10990381Y-11286476D01*
X10971333Y-11276952D01*
X10961810Y-11267428D01*
X10952286Y-11248381D01*
X10942762Y-11210286D01*
X10942762Y-11162667D01*
X10952286Y-11124571D01*
X10961810Y-11105524D01*
X10971333Y-11096000D01*
X10990381Y-11086476D01*
X11142762Y-11286476D02*
X11142762Y-11153143D01*
X11142762Y-11172190D02*
X11152286Y-11162667D01*
X11171333Y-11153143D01*
X11199905Y-11153143D01*
X11218952Y-11162667D01*
X11228476Y-11181714D01*
X11228476Y-11286476D01*
X11228476Y-11181714D02*
X11238000Y-11162667D01*
X11257048Y-11153143D01*
X11285619Y-11153143D01*
X11304667Y-11162667D01*
X11314190Y-11181714D01*
X11314190Y-11286476D01*
X11409428Y-11286476D02*
X11409428Y-11153143D01*
X11409428Y-11172190D02*
X11418952Y-11162667D01*
X11438000Y-11153143D01*
X11466571Y-11153143D01*
X11485619Y-11162667D01*
X11495143Y-11181714D01*
X11495143Y-11286476D01*
X11495143Y-11181714D02*
X11504667Y-11162667D01*
X11523714Y-11153143D01*
X11552286Y-11153143D01*
X11571333Y-11162667D01*
X11580857Y-11181714D01*
X11580857Y-11286476D01*
X11971333Y-11076952D02*
X11799905Y-11334095D01*
X12228476Y-11086476D02*
X12247524Y-11086476D01*
X12266571Y-11096000D01*
X12276095Y-11105524D01*
X12285619Y-11124571D01*
X12295143Y-11162667D01*
X12295143Y-11210286D01*
X12285619Y-11248381D01*
X12276095Y-11267428D01*
X12266571Y-11276952D01*
X12247524Y-11286476D01*
X12228476Y-11286476D01*
X12209428Y-11276952D01*
X12199905Y-11267428D01*
X12190381Y-11248381D01*
X12180857Y-11210286D01*
X12180857Y-11162667D01*
X12190381Y-11124571D01*
X12199905Y-11105524D01*
X12209428Y-11096000D01*
X12228476Y-11086476D01*
X12380857Y-11267428D02*
X12390381Y-11276952D01*
X12380857Y-11286476D01*
X12371333Y-11276952D01*
X12380857Y-11267428D01*
X12380857Y-11286476D01*
X12514190Y-11086476D02*
X12533238Y-11086476D01*
X12552286Y-11096000D01*
X12561809Y-11105524D01*
X12571333Y-11124571D01*
X12580857Y-11162667D01*
X12580857Y-11210286D01*
X12571333Y-11248381D01*
X12561809Y-11267428D01*
X12552286Y-11276952D01*
X12533238Y-11286476D01*
X12514190Y-11286476D01*
X12495143Y-11276952D01*
X12485619Y-11267428D01*
X12476095Y-11248381D01*
X12466571Y-11210286D01*
X12466571Y-11162667D01*
X12476095Y-11124571D01*
X12485619Y-11105524D01*
X12495143Y-11096000D01*
X12514190Y-11086476D01*
X12771333Y-11286476D02*
X12657048Y-11286476D01*
X12714190Y-11286476D02*
X12714190Y-11086476D01*
X12695143Y-11115048D01*
X12676095Y-11134095D01*
X12657048Y-11143619D01*
X12952286Y-11086476D02*
X12857048Y-11086476D01*
X12847524Y-11181714D01*
X12857048Y-11172190D01*
X12876095Y-11162667D01*
X12923714Y-11162667D01*
X12942762Y-11172190D01*
X12952286Y-11181714D01*
X12961809Y-11200762D01*
X12961809Y-11248381D01*
X12952286Y-11267428D01*
X12942762Y-11276952D01*
X12923714Y-11286476D01*
X12876095Y-11286476D01*
X12857048Y-11276952D01*
X12847524Y-11267428D01*
X13028476Y-11086476D02*
X13161809Y-11086476D01*
X13076095Y-11286476D01*
X13228476Y-11086476D02*
X13228476Y-11124571D01*
X13304667Y-11086476D02*
X13304667Y-11124571D01*
X13599905Y-11362667D02*
X13590381Y-11353143D01*
X13571333Y-11324571D01*
X13561809Y-11305524D01*
X13552286Y-11276952D01*
X13542762Y-11229333D01*
X13542762Y-11191238D01*
X13552286Y-11143619D01*
X13561809Y-11115048D01*
X13571333Y-11096000D01*
X13590381Y-11067429D01*
X13599905Y-11057905D01*
X13657048Y-11086476D02*
X13790381Y-11086476D01*
X13704667Y-11286476D01*
X13952286Y-11153143D02*
X13952286Y-11286476D01*
X13904667Y-11076952D02*
X13857048Y-11219809D01*
X13980857Y-11219809D01*
X14209428Y-11286476D02*
X14209428Y-11086476D01*
X14295143Y-11286476D02*
X14295143Y-11181714D01*
X14285619Y-11162667D01*
X14266571Y-11153143D01*
X14238000Y-11153143D01*
X14218952Y-11162667D01*
X14209428Y-11172190D01*
X14418952Y-11286476D02*
X14399905Y-11276952D01*
X14390381Y-11267428D01*
X14380857Y-11248381D01*
X14380857Y-11191238D01*
X14390381Y-11172190D01*
X14399905Y-11162667D01*
X14418952Y-11153143D01*
X14447524Y-11153143D01*
X14466571Y-11162667D01*
X14476095Y-11172190D01*
X14485619Y-11191238D01*
X14485619Y-11248381D01*
X14476095Y-11267428D01*
X14466571Y-11276952D01*
X14447524Y-11286476D01*
X14418952Y-11286476D01*
X14599905Y-11286476D02*
X14580857Y-11276952D01*
X14571333Y-11257905D01*
X14571333Y-11086476D01*
X14752286Y-11276952D02*
X14733238Y-11286476D01*
X14695143Y-11286476D01*
X14676095Y-11276952D01*
X14666571Y-11257905D01*
X14666571Y-11181714D01*
X14676095Y-11162667D01*
X14695143Y-11153143D01*
X14733238Y-11153143D01*
X14752286Y-11162667D01*
X14761809Y-11181714D01*
X14761809Y-11200762D01*
X14666571Y-11219809D01*
X14838000Y-11276952D02*
X14857048Y-11286476D01*
X14895143Y-11286476D01*
X14914190Y-11276952D01*
X14923714Y-11257905D01*
X14923714Y-11248381D01*
X14914190Y-11229333D01*
X14895143Y-11219809D01*
X14866571Y-11219809D01*
X14847524Y-11210286D01*
X14838000Y-11191238D01*
X14838000Y-11181714D01*
X14847524Y-11162667D01*
X14866571Y-11153143D01*
X14895143Y-11153143D01*
X14914190Y-11162667D01*
X14990381Y-11362667D02*
X14999905Y-11353143D01*
X15018952Y-11324571D01*
X15028476Y-11305524D01*
X15038000Y-11276952D01*
X15047524Y-11229333D01*
X15047524Y-11191238D01*
X15038000Y-11143619D01*
X15028476Y-11115048D01*
X15018952Y-11096000D01*
X14999905Y-11067429D01*
X14990381Y-11057905D01*
D14*
X9998000Y-11430000D02*
X9998000Y-11490000D01*
X9968000Y-11460000D02*
X10028000Y-11460000D01*
D11*
X10323714Y-11350476D02*
X10342762Y-11350476D01*
X10361810Y-11360000D01*
X10371333Y-11369524D01*
X10380857Y-11388571D01*
X10390381Y-11426667D01*
X10390381Y-11474286D01*
X10380857Y-11512381D01*
X10371333Y-11531428D01*
X10361810Y-11540952D01*
X10342762Y-11550476D01*
X10323714Y-11550476D01*
X10304667Y-11540952D01*
X10295143Y-11531428D01*
X10285619Y-11512381D01*
X10276095Y-11474286D01*
X10276095Y-11426667D01*
X10285619Y-11388571D01*
X10295143Y-11369524D01*
X10304667Y-11360000D01*
X10323714Y-11350476D01*
X10476095Y-11531428D02*
X10485619Y-11540952D01*
X10476095Y-11550476D01*
X10466571Y-11540952D01*
X10476095Y-11531428D01*
X10476095Y-11550476D01*
X10657048Y-11350476D02*
X10618952Y-11350476D01*
X10599905Y-11360000D01*
X10590381Y-11369524D01*
X10571333Y-11398095D01*
X10561810Y-11436190D01*
X10561810Y-11512381D01*
X10571333Y-11531428D01*
X10580857Y-11540952D01*
X10599905Y-11550476D01*
X10638000Y-11550476D01*
X10657048Y-11540952D01*
X10666571Y-11531428D01*
X10676095Y-11512381D01*
X10676095Y-11464762D01*
X10666571Y-11445714D01*
X10657048Y-11436190D01*
X10638000Y-11426667D01*
X10599905Y-11426667D01*
X10580857Y-11436190D01*
X10571333Y-11445714D01*
X10561810Y-11464762D01*
X10799905Y-11350476D02*
X10818952Y-11350476D01*
X10838000Y-11360000D01*
X10847524Y-11369524D01*
X10857048Y-11388571D01*
X10866571Y-11426667D01*
X10866571Y-11474286D01*
X10857048Y-11512381D01*
X10847524Y-11531428D01*
X10838000Y-11540952D01*
X10818952Y-11550476D01*
X10799905Y-11550476D01*
X10780857Y-11540952D01*
X10771333Y-11531428D01*
X10761810Y-11512381D01*
X10752286Y-11474286D01*
X10752286Y-11426667D01*
X10761810Y-11388571D01*
X10771333Y-11369524D01*
X10780857Y-11360000D01*
X10799905Y-11350476D01*
X10990381Y-11350476D02*
X11009429Y-11350476D01*
X11028476Y-11360000D01*
X11038000Y-11369524D01*
X11047524Y-11388571D01*
X11057048Y-11426667D01*
X11057048Y-11474286D01*
X11047524Y-11512381D01*
X11038000Y-11531428D01*
X11028476Y-11540952D01*
X11009429Y-11550476D01*
X10990381Y-11550476D01*
X10971333Y-11540952D01*
X10961810Y-11531428D01*
X10952286Y-11512381D01*
X10942762Y-11474286D01*
X10942762Y-11426667D01*
X10952286Y-11388571D01*
X10961810Y-11369524D01*
X10971333Y-11360000D01*
X10990381Y-11350476D01*
X11142762Y-11550476D02*
X11142762Y-11417143D01*
X11142762Y-11436190D02*
X11152286Y-11426667D01*
X11171333Y-11417143D01*
X11199905Y-11417143D01*
X11218952Y-11426667D01*
X11228476Y-11445714D01*
X11228476Y-11550476D01*
X11228476Y-11445714D02*
X11238000Y-11426667D01*
X11257048Y-11417143D01*
X11285619Y-11417143D01*
X11304667Y-11426667D01*
X11314190Y-11445714D01*
X11314190Y-11550476D01*
X11409428Y-11550476D02*
X11409428Y-11417143D01*
X11409428Y-11436190D02*
X11418952Y-11426667D01*
X11438000Y-11417143D01*
X11466571Y-11417143D01*
X11485619Y-11426667D01*
X11495143Y-11445714D01*
X11495143Y-11550476D01*
X11495143Y-11445714D02*
X11504667Y-11426667D01*
X11523714Y-11417143D01*
X11552286Y-11417143D01*
X11571333Y-11426667D01*
X11580857Y-11445714D01*
X11580857Y-11550476D01*
X11971333Y-11340952D02*
X11799905Y-11598095D01*
X12228476Y-11350476D02*
X12247524Y-11350476D01*
X12266571Y-11360000D01*
X12276095Y-11369524D01*
X12285619Y-11388571D01*
X12295143Y-11426667D01*
X12295143Y-11474286D01*
X12285619Y-11512381D01*
X12276095Y-11531428D01*
X12266571Y-11540952D01*
X12247524Y-11550476D01*
X12228476Y-11550476D01*
X12209428Y-11540952D01*
X12199905Y-11531428D01*
X12190381Y-11512381D01*
X12180857Y-11474286D01*
X12180857Y-11426667D01*
X12190381Y-11388571D01*
X12199905Y-11369524D01*
X12209428Y-11360000D01*
X12228476Y-11350476D01*
X12380857Y-11531428D02*
X12390381Y-11540952D01*
X12380857Y-11550476D01*
X12371333Y-11540952D01*
X12380857Y-11531428D01*
X12380857Y-11550476D01*
X12514190Y-11350476D02*
X12533238Y-11350476D01*
X12552286Y-11360000D01*
X12561809Y-11369524D01*
X12571333Y-11388571D01*
X12580857Y-11426667D01*
X12580857Y-11474286D01*
X12571333Y-11512381D01*
X12561809Y-11531428D01*
X12552286Y-11540952D01*
X12533238Y-11550476D01*
X12514190Y-11550476D01*
X12495143Y-11540952D01*
X12485619Y-11531428D01*
X12476095Y-11512381D01*
X12466571Y-11474286D01*
X12466571Y-11426667D01*
X12476095Y-11388571D01*
X12485619Y-11369524D01*
X12495143Y-11360000D01*
X12514190Y-11350476D01*
X12657048Y-11369524D02*
X12666571Y-11360000D01*
X12685619Y-11350476D01*
X12733238Y-11350476D01*
X12752286Y-11360000D01*
X12761809Y-11369524D01*
X12771333Y-11388571D01*
X12771333Y-11407619D01*
X12761809Y-11436190D01*
X12647524Y-11550476D01*
X12771333Y-11550476D01*
X12838000Y-11350476D02*
X12961809Y-11350476D01*
X12895143Y-11426667D01*
X12923714Y-11426667D01*
X12942762Y-11436190D01*
X12952286Y-11445714D01*
X12961809Y-11464762D01*
X12961809Y-11512381D01*
X12952286Y-11531428D01*
X12942762Y-11540952D01*
X12923714Y-11550476D01*
X12866571Y-11550476D01*
X12847524Y-11540952D01*
X12838000Y-11531428D01*
X13133238Y-11350476D02*
X13095143Y-11350476D01*
X13076095Y-11360000D01*
X13066571Y-11369524D01*
X13047524Y-11398095D01*
X13038000Y-11436190D01*
X13038000Y-11512381D01*
X13047524Y-11531428D01*
X13057048Y-11540952D01*
X13076095Y-11550476D01*
X13114190Y-11550476D01*
X13133238Y-11540952D01*
X13142762Y-11531428D01*
X13152286Y-11512381D01*
X13152286Y-11464762D01*
X13142762Y-11445714D01*
X13133238Y-11436190D01*
X13114190Y-11426667D01*
X13076095Y-11426667D01*
X13057048Y-11436190D01*
X13047524Y-11445714D01*
X13038000Y-11464762D01*
X13228476Y-11350476D02*
X13228476Y-11388571D01*
X13304667Y-11350476D02*
X13304667Y-11388571D01*
X13599905Y-11626667D02*
X13590381Y-11617143D01*
X13571333Y-11588571D01*
X13561809Y-11569524D01*
X13552286Y-11540952D01*
X13542762Y-11493333D01*
X13542762Y-11455238D01*
X13552286Y-11407619D01*
X13561809Y-11379048D01*
X13571333Y-11360000D01*
X13590381Y-11331428D01*
X13599905Y-11321905D01*
X13714190Y-11350476D02*
X13733238Y-11350476D01*
X13752286Y-11360000D01*
X13761809Y-11369524D01*
X13771333Y-11388571D01*
X13780857Y-11426667D01*
X13780857Y-11474286D01*
X13771333Y-11512381D01*
X13761809Y-11531428D01*
X13752286Y-11540952D01*
X13733238Y-11550476D01*
X13714190Y-11550476D01*
X13695143Y-11540952D01*
X13685619Y-11531428D01*
X13676095Y-11512381D01*
X13666571Y-11474286D01*
X13666571Y-11426667D01*
X13676095Y-11388571D01*
X13685619Y-11369524D01*
X13695143Y-11360000D01*
X13714190Y-11350476D01*
X14018952Y-11550476D02*
X14018952Y-11350476D01*
X14104667Y-11550476D02*
X14104667Y-11445714D01*
X14095143Y-11426667D01*
X14076095Y-11417143D01*
X14047524Y-11417143D01*
X14028476Y-11426667D01*
X14018952Y-11436190D01*
X14228476Y-11550476D02*
X14209428Y-11540952D01*
X14199905Y-11531428D01*
X14190381Y-11512381D01*
X14190381Y-11455238D01*
X14199905Y-11436190D01*
X14209428Y-11426667D01*
X14228476Y-11417143D01*
X14257048Y-11417143D01*
X14276095Y-11426667D01*
X14285619Y-11436190D01*
X14295143Y-11455238D01*
X14295143Y-11512381D01*
X14285619Y-11531428D01*
X14276095Y-11540952D01*
X14257048Y-11550476D01*
X14228476Y-11550476D01*
X14409428Y-11550476D02*
X14390381Y-11540952D01*
X14380857Y-11521905D01*
X14380857Y-11350476D01*
X14561809Y-11540952D02*
X14542762Y-11550476D01*
X14504667Y-11550476D01*
X14485619Y-11540952D01*
X14476095Y-11521905D01*
X14476095Y-11445714D01*
X14485619Y-11426667D01*
X14504667Y-11417143D01*
X14542762Y-11417143D01*
X14561809Y-11426667D01*
X14571333Y-11445714D01*
X14571333Y-11464762D01*
X14476095Y-11483809D01*
X14647524Y-11540952D02*
X14666571Y-11550476D01*
X14704667Y-11550476D01*
X14723714Y-11540952D01*
X14733238Y-11521905D01*
X14733238Y-11512381D01*
X14723714Y-11493333D01*
X14704667Y-11483809D01*
X14676095Y-11483809D01*
X14657048Y-11474286D01*
X14647524Y-11455238D01*
X14647524Y-11445714D01*
X14657048Y-11426667D01*
X14676095Y-11417143D01*
X14704667Y-11417143D01*
X14723714Y-11426667D01*
X14971333Y-11474286D02*
X15123714Y-11474286D01*
X15047524Y-11550476D02*
X15047524Y-11398095D01*
X15361809Y-11369524D02*
X15371333Y-11360000D01*
X15390381Y-11350476D01*
X15438000Y-11350476D01*
X15457048Y-11360000D01*
X15466571Y-11369524D01*
X15476095Y-11388571D01*
X15476095Y-11407619D01*
X15466571Y-11436190D01*
X15352286Y-11550476D01*
X15476095Y-11550476D01*
X15704667Y-11540952D02*
X15723714Y-11550476D01*
X15761809Y-11550476D01*
X15780857Y-11540952D01*
X15790381Y-11521905D01*
X15790381Y-11512381D01*
X15780857Y-11493333D01*
X15761809Y-11483809D01*
X15733238Y-11483809D01*
X15714190Y-11474286D01*
X15704667Y-11455238D01*
X15704667Y-11445714D01*
X15714190Y-11426667D01*
X15733238Y-11417143D01*
X15761809Y-11417143D01*
X15780857Y-11426667D01*
X15904667Y-11550476D02*
X15885619Y-11540952D01*
X15876095Y-11521905D01*
X15876095Y-11350476D01*
X16009428Y-11550476D02*
X15990381Y-11540952D01*
X15980857Y-11531428D01*
X15971333Y-11512381D01*
X15971333Y-11455238D01*
X15980857Y-11436190D01*
X15990381Y-11426667D01*
X16009428Y-11417143D01*
X16038000Y-11417143D01*
X16057048Y-11426667D01*
X16066571Y-11436190D01*
X16076095Y-11455238D01*
X16076095Y-11512381D01*
X16066571Y-11531428D01*
X16057048Y-11540952D01*
X16038000Y-11550476D01*
X16009428Y-11550476D01*
X16133238Y-11417143D02*
X16209428Y-11417143D01*
X16161809Y-11350476D02*
X16161809Y-11521905D01*
X16171333Y-11540952D01*
X16190381Y-11550476D01*
X16209428Y-11550476D01*
X16266571Y-11540952D02*
X16285619Y-11550476D01*
X16323714Y-11550476D01*
X16342762Y-11540952D01*
X16352286Y-11521905D01*
X16352286Y-11512381D01*
X16342762Y-11493333D01*
X16323714Y-11483809D01*
X16295143Y-11483809D01*
X16276095Y-11474286D01*
X16266571Y-11455238D01*
X16266571Y-11445714D01*
X16276095Y-11426667D01*
X16295143Y-11417143D01*
X16323714Y-11417143D01*
X16342762Y-11426667D01*
X16418952Y-11626667D02*
X16428476Y-11617143D01*
X16447524Y-11588571D01*
X16457048Y-11569524D01*
X16466571Y-11540952D01*
X16476095Y-11493333D01*
X16476095Y-11455238D01*
X16466571Y-11407619D01*
X16457048Y-11379048D01*
X16447524Y-11360000D01*
X16428476Y-11331428D01*
X16418952Y-11321905D01*
D15*
X10015552Y-11754052D02*
X10015552Y-11693948D01*
X9955448Y-11693948D01*
X9955448Y-11754052D01*
X10015552Y-11754052D01*
D11*
X10323714Y-11614476D02*
X10342762Y-11614476D01*
X10361810Y-11624000D01*
X10371333Y-11633524D01*
X10380857Y-11652571D01*
X10390381Y-11690667D01*
X10390381Y-11738286D01*
X10380857Y-11776381D01*
X10371333Y-11795428D01*
X10361810Y-11804952D01*
X10342762Y-11814476D01*
X10323714Y-11814476D01*
X10304667Y-11804952D01*
X10295143Y-11795428D01*
X10285619Y-11776381D01*
X10276095Y-11738286D01*
X10276095Y-11690667D01*
X10285619Y-11652571D01*
X10295143Y-11633524D01*
X10304667Y-11624000D01*
X10323714Y-11614476D01*
X10476095Y-11795428D02*
X10485619Y-11804952D01*
X10476095Y-11814476D01*
X10466571Y-11804952D01*
X10476095Y-11795428D01*
X10476095Y-11814476D01*
X10599905Y-11700190D02*
X10580857Y-11690667D01*
X10571333Y-11681143D01*
X10561810Y-11662095D01*
X10561810Y-11652571D01*
X10571333Y-11633524D01*
X10580857Y-11624000D01*
X10599905Y-11614476D01*
X10638000Y-11614476D01*
X10657048Y-11624000D01*
X10666571Y-11633524D01*
X10676095Y-11652571D01*
X10676095Y-11662095D01*
X10666571Y-11681143D01*
X10657048Y-11690667D01*
X10638000Y-11700190D01*
X10599905Y-11700190D01*
X10580857Y-11709714D01*
X10571333Y-11719238D01*
X10561810Y-11738286D01*
X10561810Y-11776381D01*
X10571333Y-11795428D01*
X10580857Y-11804952D01*
X10599905Y-11814476D01*
X10638000Y-11814476D01*
X10657048Y-11804952D01*
X10666571Y-11795428D01*
X10676095Y-11776381D01*
X10676095Y-11738286D01*
X10666571Y-11719238D01*
X10657048Y-11709714D01*
X10638000Y-11700190D01*
X10857048Y-11614476D02*
X10761810Y-11614476D01*
X10752286Y-11709714D01*
X10761810Y-11700190D01*
X10780857Y-11690667D01*
X10828476Y-11690667D01*
X10847524Y-11700190D01*
X10857048Y-11709714D01*
X10866571Y-11728762D01*
X10866571Y-11776381D01*
X10857048Y-11795428D01*
X10847524Y-11804952D01*
X10828476Y-11814476D01*
X10780857Y-11814476D01*
X10761810Y-11804952D01*
X10752286Y-11795428D01*
X10990381Y-11614476D02*
X11009429Y-11614476D01*
X11028476Y-11624000D01*
X11038000Y-11633524D01*
X11047524Y-11652571D01*
X11057048Y-11690667D01*
X11057048Y-11738286D01*
X11047524Y-11776381D01*
X11038000Y-11795428D01*
X11028476Y-11804952D01*
X11009429Y-11814476D01*
X10990381Y-11814476D01*
X10971333Y-11804952D01*
X10961810Y-11795428D01*
X10952286Y-11776381D01*
X10942762Y-11738286D01*
X10942762Y-11690667D01*
X10952286Y-11652571D01*
X10961810Y-11633524D01*
X10971333Y-11624000D01*
X10990381Y-11614476D01*
X11142762Y-11814476D02*
X11142762Y-11681143D01*
X11142762Y-11700190D02*
X11152286Y-11690667D01*
X11171333Y-11681143D01*
X11199905Y-11681143D01*
X11218952Y-11690667D01*
X11228476Y-11709714D01*
X11228476Y-11814476D01*
X11228476Y-11709714D02*
X11238000Y-11690667D01*
X11257048Y-11681143D01*
X11285619Y-11681143D01*
X11304667Y-11690667D01*
X11314190Y-11709714D01*
X11314190Y-11814476D01*
X11409428Y-11814476D02*
X11409428Y-11681143D01*
X11409428Y-11700190D02*
X11418952Y-11690667D01*
X11438000Y-11681143D01*
X11466571Y-11681143D01*
X11485619Y-11690667D01*
X11495143Y-11709714D01*
X11495143Y-11814476D01*
X11495143Y-11709714D02*
X11504667Y-11690667D01*
X11523714Y-11681143D01*
X11552286Y-11681143D01*
X11571333Y-11690667D01*
X11580857Y-11709714D01*
X11580857Y-11814476D01*
X11971333Y-11604952D02*
X11799905Y-11862095D01*
X12228476Y-11614476D02*
X12247524Y-11614476D01*
X12266571Y-11624000D01*
X12276095Y-11633524D01*
X12285619Y-11652571D01*
X12295143Y-11690667D01*
X12295143Y-11738286D01*
X12285619Y-11776381D01*
X12276095Y-11795428D01*
X12266571Y-11804952D01*
X12247524Y-11814476D01*
X12228476Y-11814476D01*
X12209428Y-11804952D01*
X12199905Y-11795428D01*
X12190381Y-11776381D01*
X12180857Y-11738286D01*
X12180857Y-11690667D01*
X12190381Y-11652571D01*
X12199905Y-11633524D01*
X12209428Y-11624000D01*
X12228476Y-11614476D01*
X12380857Y-11795428D02*
X12390381Y-11804952D01*
X12380857Y-11814476D01*
X12371333Y-11804952D01*
X12380857Y-11795428D01*
X12380857Y-11814476D01*
X12514190Y-11614476D02*
X12533238Y-11614476D01*
X12552286Y-11624000D01*
X12561809Y-11633524D01*
X12571333Y-11652571D01*
X12580857Y-11690667D01*
X12580857Y-11738286D01*
X12571333Y-11776381D01*
X12561809Y-11795428D01*
X12552286Y-11804952D01*
X12533238Y-11814476D01*
X12514190Y-11814476D01*
X12495143Y-11804952D01*
X12485619Y-11795428D01*
X12476095Y-11776381D01*
X12466571Y-11738286D01*
X12466571Y-11690667D01*
X12476095Y-11652571D01*
X12485619Y-11633524D01*
X12495143Y-11624000D01*
X12514190Y-11614476D01*
X12647524Y-11614476D02*
X12771333Y-11614476D01*
X12704667Y-11690667D01*
X12733238Y-11690667D01*
X12752286Y-11700190D01*
X12761809Y-11709714D01*
X12771333Y-11728762D01*
X12771333Y-11776381D01*
X12761809Y-11795428D01*
X12752286Y-11804952D01*
X12733238Y-11814476D01*
X12676095Y-11814476D01*
X12657048Y-11804952D01*
X12647524Y-11795428D01*
X12838000Y-11614476D02*
X12961809Y-11614476D01*
X12895143Y-11690667D01*
X12923714Y-11690667D01*
X12942762Y-11700190D01*
X12952286Y-11709714D01*
X12961809Y-11728762D01*
X12961809Y-11776381D01*
X12952286Y-11795428D01*
X12942762Y-11804952D01*
X12923714Y-11814476D01*
X12866571Y-11814476D01*
X12847524Y-11804952D01*
X12838000Y-11795428D01*
X13142762Y-11614476D02*
X13047524Y-11614476D01*
X13038000Y-11709714D01*
X13047524Y-11700190D01*
X13066571Y-11690667D01*
X13114190Y-11690667D01*
X13133238Y-11700190D01*
X13142762Y-11709714D01*
X13152286Y-11728762D01*
X13152286Y-11776381D01*
X13142762Y-11795428D01*
X13133238Y-11804952D01*
X13114190Y-11814476D01*
X13066571Y-11814476D01*
X13047524Y-11804952D01*
X13038000Y-11795428D01*
X13228476Y-11614476D02*
X13228476Y-11652571D01*
X13304667Y-11614476D02*
X13304667Y-11652571D01*
X13599905Y-11890667D02*
X13590381Y-11881143D01*
X13571333Y-11852571D01*
X13561809Y-11833524D01*
X13552286Y-11804952D01*
X13542762Y-11757333D01*
X13542762Y-11719238D01*
X13552286Y-11671619D01*
X13561809Y-11643048D01*
X13571333Y-11624000D01*
X13590381Y-11595428D01*
X13599905Y-11585905D01*
X13666571Y-11633524D02*
X13676095Y-11624000D01*
X13695143Y-11614476D01*
X13742762Y-11614476D01*
X13761809Y-11624000D01*
X13771333Y-11633524D01*
X13780857Y-11652571D01*
X13780857Y-11671619D01*
X13771333Y-11700190D01*
X13657048Y-11814476D01*
X13780857Y-11814476D01*
X14018952Y-11814476D02*
X14018952Y-11614476D01*
X14104667Y-11814476D02*
X14104667Y-11709714D01*
X14095143Y-11690667D01*
X14076095Y-11681143D01*
X14047524Y-11681143D01*
X14028476Y-11690667D01*
X14018952Y-11700190D01*
X14228476Y-11814476D02*
X14209428Y-11804952D01*
X14199905Y-11795428D01*
X14190381Y-11776381D01*
X14190381Y-11719238D01*
X14199905Y-11700190D01*
X14209428Y-11690667D01*
X14228476Y-11681143D01*
X14257048Y-11681143D01*
X14276095Y-11690667D01*
X14285619Y-11700190D01*
X14295143Y-11719238D01*
X14295143Y-11776381D01*
X14285619Y-11795428D01*
X14276095Y-11804952D01*
X14257048Y-11814476D01*
X14228476Y-11814476D01*
X14409428Y-11814476D02*
X14390381Y-11804952D01*
X14380857Y-11785905D01*
X14380857Y-11614476D01*
X14561809Y-11804952D02*
X14542762Y-11814476D01*
X14504667Y-11814476D01*
X14485619Y-11804952D01*
X14476095Y-11785905D01*
X14476095Y-11709714D01*
X14485619Y-11690667D01*
X14504667Y-11681143D01*
X14542762Y-11681143D01*
X14561809Y-11690667D01*
X14571333Y-11709714D01*
X14571333Y-11728762D01*
X14476095Y-11747809D01*
X14647524Y-11804952D02*
X14666571Y-11814476D01*
X14704667Y-11814476D01*
X14723714Y-11804952D01*
X14733238Y-11785905D01*
X14733238Y-11776381D01*
X14723714Y-11757333D01*
X14704667Y-11747809D01*
X14676095Y-11747809D01*
X14657048Y-11738286D01*
X14647524Y-11719238D01*
X14647524Y-11709714D01*
X14657048Y-11690667D01*
X14676095Y-11681143D01*
X14704667Y-11681143D01*
X14723714Y-11690667D01*
X14799905Y-11890667D02*
X14809428Y-11881143D01*
X14828476Y-11852571D01*
X14838000Y-11833524D01*
X14847524Y-11804952D01*
X14857048Y-11757333D01*
X14857048Y-11719238D01*
X14847524Y-11671619D01*
X14838000Y-11643048D01*
X14828476Y-11624000D01*
X14809428Y-11595428D01*
X14799905Y-11585905D01*
D10*
X9978000Y-12038000D02*
X10028000Y-11988000D01*
X9978000Y-11938000D01*
X9928000Y-11988000D01*
X9978000Y-12038000D01*
D11*
X10390381Y-12078476D02*
X10276095Y-12078476D01*
X10333238Y-12078476D02*
X10333238Y-11878476D01*
X10314190Y-11907048D01*
X10295143Y-11926095D01*
X10276095Y-11935619D01*
X10476095Y-12059428D02*
X10485619Y-12068952D01*
X10476095Y-12078476D01*
X10466571Y-12068952D01*
X10476095Y-12059428D01*
X10476095Y-12078476D01*
X10609429Y-11878476D02*
X10628476Y-11878476D01*
X10647524Y-11888000D01*
X10657048Y-11897524D01*
X10666571Y-11916571D01*
X10676095Y-11954667D01*
X10676095Y-12002286D01*
X10666571Y-12040381D01*
X10657048Y-12059428D01*
X10647524Y-12068952D01*
X10628476Y-12078476D01*
X10609429Y-12078476D01*
X10590381Y-12068952D01*
X10580857Y-12059428D01*
X10571333Y-12040381D01*
X10561810Y-12002286D01*
X10561810Y-11954667D01*
X10571333Y-11916571D01*
X10580857Y-11897524D01*
X10590381Y-11888000D01*
X10609429Y-11878476D01*
X10799905Y-11878476D02*
X10818952Y-11878476D01*
X10838000Y-11888000D01*
X10847524Y-11897524D01*
X10857048Y-11916571D01*
X10866571Y-11954667D01*
X10866571Y-12002286D01*
X10857048Y-12040381D01*
X10847524Y-12059428D01*
X10838000Y-12068952D01*
X10818952Y-12078476D01*
X10799905Y-12078476D01*
X10780857Y-12068952D01*
X10771333Y-12059428D01*
X10761810Y-12040381D01*
X10752286Y-12002286D01*
X10752286Y-11954667D01*
X10761810Y-11916571D01*
X10771333Y-11897524D01*
X10780857Y-11888000D01*
X10799905Y-11878476D01*
X10990381Y-11878476D02*
X11009429Y-11878476D01*
X11028476Y-11888000D01*
X11038000Y-11897524D01*
X11047524Y-11916571D01*
X11057048Y-11954667D01*
X11057048Y-12002286D01*
X11047524Y-12040381D01*
X11038000Y-12059428D01*
X11028476Y-12068952D01*
X11009429Y-12078476D01*
X10990381Y-12078476D01*
X10971333Y-12068952D01*
X10961810Y-12059428D01*
X10952286Y-12040381D01*
X10942762Y-12002286D01*
X10942762Y-11954667D01*
X10952286Y-11916571D01*
X10961810Y-11897524D01*
X10971333Y-11888000D01*
X10990381Y-11878476D01*
X11142762Y-12078476D02*
X11142762Y-11945143D01*
X11142762Y-11964190D02*
X11152286Y-11954667D01*
X11171333Y-11945143D01*
X11199905Y-11945143D01*
X11218952Y-11954667D01*
X11228476Y-11973714D01*
X11228476Y-12078476D01*
X11228476Y-11973714D02*
X11238000Y-11954667D01*
X11257048Y-11945143D01*
X11285619Y-11945143D01*
X11304667Y-11954667D01*
X11314190Y-11973714D01*
X11314190Y-12078476D01*
X11409428Y-12078476D02*
X11409428Y-11945143D01*
X11409428Y-11964190D02*
X11418952Y-11954667D01*
X11438000Y-11945143D01*
X11466571Y-11945143D01*
X11485619Y-11954667D01*
X11495143Y-11973714D01*
X11495143Y-12078476D01*
X11495143Y-11973714D02*
X11504667Y-11954667D01*
X11523714Y-11945143D01*
X11552286Y-11945143D01*
X11571333Y-11954667D01*
X11580857Y-11973714D01*
X11580857Y-12078476D01*
X11971333Y-11868952D02*
X11799905Y-12126095D01*
X12228476Y-11878476D02*
X12247524Y-11878476D01*
X12266571Y-11888000D01*
X12276095Y-11897524D01*
X12285619Y-11916571D01*
X12295143Y-11954667D01*
X12295143Y-12002286D01*
X12285619Y-12040381D01*
X12276095Y-12059428D01*
X12266571Y-12068952D01*
X12247524Y-12078476D01*
X12228476Y-12078476D01*
X12209428Y-12068952D01*
X12199905Y-12059428D01*
X12190381Y-12040381D01*
X12180857Y-12002286D01*
X12180857Y-11954667D01*
X12190381Y-11916571D01*
X12199905Y-11897524D01*
X12209428Y-11888000D01*
X12228476Y-11878476D01*
X12380857Y-12059428D02*
X12390381Y-12068952D01*
X12380857Y-12078476D01*
X12371333Y-12068952D01*
X12380857Y-12059428D01*
X12380857Y-12078476D01*
X12514190Y-11878476D02*
X12533238Y-11878476D01*
X12552286Y-11888000D01*
X12561809Y-11897524D01*
X12571333Y-11916571D01*
X12580857Y-11954667D01*
X12580857Y-12002286D01*
X12571333Y-12040381D01*
X12561809Y-12059428D01*
X12552286Y-12068952D01*
X12533238Y-12078476D01*
X12514190Y-12078476D01*
X12495143Y-12068952D01*
X12485619Y-12059428D01*
X12476095Y-12040381D01*
X12466571Y-12002286D01*
X12466571Y-11954667D01*
X12476095Y-11916571D01*
X12485619Y-11897524D01*
X12495143Y-11888000D01*
X12514190Y-11878476D01*
X12647524Y-11878476D02*
X12771333Y-11878476D01*
X12704667Y-11954667D01*
X12733238Y-11954667D01*
X12752286Y-11964190D01*
X12761809Y-11973714D01*
X12771333Y-11992762D01*
X12771333Y-12040381D01*
X12761809Y-12059428D01*
X12752286Y-12068952D01*
X12733238Y-12078476D01*
X12676095Y-12078476D01*
X12657048Y-12068952D01*
X12647524Y-12059428D01*
X12866571Y-12078476D02*
X12904667Y-12078476D01*
X12923714Y-12068952D01*
X12933238Y-12059428D01*
X12952286Y-12030857D01*
X12961809Y-11992762D01*
X12961809Y-11916571D01*
X12952286Y-11897524D01*
X12942762Y-11888000D01*
X12923714Y-11878476D01*
X12885619Y-11878476D01*
X12866571Y-11888000D01*
X12857048Y-11897524D01*
X12847524Y-11916571D01*
X12847524Y-11964190D01*
X12857048Y-11983238D01*
X12866571Y-11992762D01*
X12885619Y-12002286D01*
X12923714Y-12002286D01*
X12942762Y-11992762D01*
X12952286Y-11983238D01*
X12961809Y-11964190D01*
X13133238Y-11945143D02*
X13133238Y-12078476D01*
X13085619Y-11868952D02*
X13038000Y-12011809D01*
X13161809Y-12011809D01*
X13228476Y-11878476D02*
X13228476Y-11916571D01*
X13304667Y-11878476D02*
X13304667Y-11916571D01*
X13599905Y-12154667D02*
X13590381Y-12145143D01*
X13571333Y-12116571D01*
X13561809Y-12097524D01*
X13552286Y-12068952D01*
X13542762Y-12021333D01*
X13542762Y-11983238D01*
X13552286Y-11935619D01*
X13561809Y-11907048D01*
X13571333Y-11888000D01*
X13590381Y-11859428D01*
X13599905Y-11849905D01*
X13761809Y-11878476D02*
X13723714Y-11878476D01*
X13704667Y-11888000D01*
X13695143Y-11897524D01*
X13676095Y-11926095D01*
X13666571Y-11964190D01*
X13666571Y-12040381D01*
X13676095Y-12059428D01*
X13685619Y-12068952D01*
X13704667Y-12078476D01*
X13742762Y-12078476D01*
X13761809Y-12068952D01*
X13771333Y-12059428D01*
X13780857Y-12040381D01*
X13780857Y-11992762D01*
X13771333Y-11973714D01*
X13761809Y-11964190D01*
X13742762Y-11954667D01*
X13704667Y-11954667D01*
X13685619Y-11964190D01*
X13676095Y-11973714D01*
X13666571Y-11992762D01*
X13904667Y-11878476D02*
X13923714Y-11878476D01*
X13942762Y-11888000D01*
X13952286Y-11897524D01*
X13961809Y-11916571D01*
X13971333Y-11954667D01*
X13971333Y-12002286D01*
X13961809Y-12040381D01*
X13952286Y-12059428D01*
X13942762Y-12068952D01*
X13923714Y-12078476D01*
X13904667Y-12078476D01*
X13885619Y-12068952D01*
X13876095Y-12059428D01*
X13866571Y-12040381D01*
X13857048Y-12002286D01*
X13857048Y-11954667D01*
X13866571Y-11916571D01*
X13876095Y-11897524D01*
X13885619Y-11888000D01*
X13904667Y-11878476D01*
X14209428Y-12078476D02*
X14209428Y-11878476D01*
X14295143Y-12078476D02*
X14295143Y-11973714D01*
X14285619Y-11954667D01*
X14266571Y-11945143D01*
X14238000Y-11945143D01*
X14218952Y-11954667D01*
X14209428Y-11964190D01*
X14418952Y-12078476D02*
X14399905Y-12068952D01*
X14390381Y-12059428D01*
X14380857Y-12040381D01*
X14380857Y-11983238D01*
X14390381Y-11964190D01*
X14399905Y-11954667D01*
X14418952Y-11945143D01*
X14447524Y-11945143D01*
X14466571Y-11954667D01*
X14476095Y-11964190D01*
X14485619Y-11983238D01*
X14485619Y-12040381D01*
X14476095Y-12059428D01*
X14466571Y-12068952D01*
X14447524Y-12078476D01*
X14418952Y-12078476D01*
X14599905Y-12078476D02*
X14580857Y-12068952D01*
X14571333Y-12049905D01*
X14571333Y-11878476D01*
X14752286Y-12068952D02*
X14733238Y-12078476D01*
X14695143Y-12078476D01*
X14676095Y-12068952D01*
X14666571Y-12049905D01*
X14666571Y-11973714D01*
X14676095Y-11954667D01*
X14695143Y-11945143D01*
X14733238Y-11945143D01*
X14752286Y-11954667D01*
X14761809Y-11973714D01*
X14761809Y-11992762D01*
X14666571Y-12011809D01*
X14838000Y-12068952D02*
X14857048Y-12078476D01*
X14895143Y-12078476D01*
X14914190Y-12068952D01*
X14923714Y-12049905D01*
X14923714Y-12040381D01*
X14914190Y-12021333D01*
X14895143Y-12011809D01*
X14866571Y-12011809D01*
X14847524Y-12002286D01*
X14838000Y-11983238D01*
X14838000Y-11973714D01*
X14847524Y-11954667D01*
X14866571Y-11945143D01*
X14895143Y-11945143D01*
X14914190Y-11954667D01*
X14990381Y-12154667D02*
X14999905Y-12145143D01*
X15018952Y-12116571D01*
X15028476Y-12097524D01*
X15038000Y-12068952D01*
X15047524Y-12021333D01*
X15047524Y-11983238D01*
X15038000Y-11935619D01*
X15028476Y-11907048D01*
X15018952Y-11888000D01*
X14999905Y-11859428D01*
X14990381Y-11849905D01*
M02*
