M48
; DRILL file {KiCad 6.0.10-86aedd382b~118~ubuntu22.04.1} date sam. 14 janv. 2023 07:34:47
; FORMAT={-:-/ absolute / metric / decimal}
; #@! TF.CreationDate,2023-01-14T07:34:47+01:00
; #@! TF.GenerationSoftware,Kicad,Pcbnew,6.0.10-86aedd382b~118~ubuntu22.04.1
; #@! TF.FileFunction,Plated,1,2,PTH
FMAT,2
METRIC
; #@! TA.AperFunction,Plated,PTH,ComponentDrill
T1C0.200
; #@! TA.AperFunction,Plated,PTH,ViaDrill
T2C0.400
; #@! TA.AperFunction,Plated,PTH,ComponentDrill
T3C0.600
; #@! TA.AperFunction,Plated,PTH,ComponentDrill
T4C0.850
; #@! TA.AperFunction,Plated,PTH,ComponentDrill
T5C1.000
%
G90
G05
T1
X107.085Y-63.582
X107.085Y-65.418
X108.002Y-62.665
X108.002Y-64.5
X108.002Y-66.335
X108.92Y-63.582
X108.92Y-65.418
X109.837Y-62.665
X109.837Y-64.5
X109.837Y-66.335
X110.755Y-63.582
X110.755Y-65.418
T2
X100.965Y-88.9
X100.965Y-101.6
X102.235Y-59.69
X102.235Y-67.31
X102.87Y-51.435
X104.775Y-75.565
X104.775Y-77.47
X106.68Y-58.42
X107.315Y-69.215
X107.52Y-57.471
X108.688Y-74.192
X109.357Y-58.283
X109.855Y-87.63
X111.125Y-69.215
X113.779Y-49.77
X114.3Y-75.565
X114.531Y-49.112
X115.353Y-48.198
X116.205Y-45.72
X116.205Y-85.725
X116.84Y-90.805
X117.475Y-76.2
X117.475Y-95.25
X121.92Y-53.34
X122.555Y-90.805
X123.825Y-41.275
X131.445Y-48.26
X131.445Y-67.945
X131.445Y-95.885
X132.673Y-50.8
X133.35Y-49.53
X133.35Y-67.945
X133.35Y-73.025
X133.985Y-74.66
X134.62Y-52.705
X134.62Y-69.215
X134.62Y-70.485
X134.62Y-71.755
X134.62Y-73.66
X134.62Y-76.835
X135.814Y-88.5
X136.525Y-48.895
X136.525Y-63.5
X136.943Y-87.834
X137.16Y-53.34
X137.16Y-55.88
X139.065Y-48.895
X139.7Y-55.245
X141.605Y-78.105
X141.605Y-83.82
X141.626Y-60.981
X142.875Y-55.245
X143.705Y-64.33
X145.87Y-76.924
X147.07Y-69.32
X147.32Y-72.39
X147.32Y-77.47
X148.06Y-69.458
X148.59Y-77.47
X148.59Y-81.28
X149.86Y-81.28
X150.584Y-78.105
X152.4Y-80.555
X156.21Y-78.74
X156.21Y-92.075
X159.385Y-59.69
X160.02Y-81.28
X161.29Y-84.455
X167.64Y-59.055
X170.18Y-71.755
X172.085Y-41.275
X173.99Y-86.995
X175.26Y-67.31
X180.975Y-74.93
T4
X104.442Y-80.696
X104.442Y-85.696
T5
X104.14Y-43.18
X104.14Y-45.72
X104.14Y-48.26
X104.14Y-95.22
X104.14Y-97.76
X104.14Y-100.3
X106.68Y-43.18
X106.68Y-45.72
X106.68Y-48.26
X106.68Y-95.22
X106.68Y-97.76
X106.68Y-100.3
X109.22Y-43.18
X109.22Y-45.72
X109.22Y-48.26
X109.22Y-95.22
X109.22Y-97.76
X109.22Y-100.3
X124.46Y-60.96
X124.46Y-63.5
X124.46Y-66.04
X124.46Y-68.58
X124.46Y-71.12
X124.46Y-73.66
X144.78Y-43.18
X144.78Y-45.72
X144.78Y-48.26
X144.9Y-95.25
X144.9Y-97.79
X144.9Y-100.33
X147.32Y-43.18
X147.32Y-45.72
X147.32Y-48.26
X147.32Y-95.25
X147.32Y-97.79
X147.32Y-100.33
X149.86Y-43.18
X149.86Y-45.72
X149.86Y-48.26
X149.86Y-95.25
X149.86Y-97.79
X149.86Y-100.33
X182.372Y-94.747
X182.372Y-97.287
X182.372Y-99.827
X182.88Y-43.18
X182.88Y-45.72
X182.88Y-48.26
X184.912Y-94.747
X184.912Y-97.287
X184.912Y-99.827
X185.42Y-43.18
X185.42Y-45.72
X185.42Y-48.26
X187.452Y-94.747
X187.452Y-97.287
X187.452Y-99.827
X187.96Y-43.18
X187.96Y-45.72
X187.96Y-48.26
T3
X101.392Y-79.696G85X102.092Y-79.696
G05
X102.092Y-86.696G85X101.392Y-86.696
G05
T0
M30
